<svg width="183" height="89" viewBox="0 0 183 89" fill="none" xmlns="http://www.w3.org/2000/svg">
<path d="M18.4 37.7H27.2C31.6 37.7 35.1 36.5 37.7 34.3C40.3 32.1 41.6 28.8 41.6 24.5C41.6 20.4 40.5 17.2 38.4 14.9C36.2 12.6 33 11.5 28.5 11.5C24.6 11.5 21.5 12.6 19 14.8C16.5 17 15.3 19.9 15.3 23.5H0.8C0.8 19.1 2 15.1 4.3 11.4C6.7 7.9 10 5.1 14.2 3C18.4 1 23.1 0 28.3 0C36.9 0 43.7 2.2 48.6 6.5C53.5 10.8 56 16.8 56 24.5C56 28.4 54.8 32 52.3 35.4C49.8 38.8 46.6 41.4 42.7 43.1C47.4 44.7 51 47.3 53.5 50.7C56 54.2 57.2 58.3 57.2 63.1C57.2 70.8 54.5 77 49.2 81.6C43.9 86.2 36.9 88.5 28.3 88.5C20 88.5 13.2 86.3 7.9 81.9C2.6 77.5 0 71.6 0 64.3H14.4C14.4 68.1 15.7 71.2 18.2 73.5C20.7 75.8 24.2 77.1 28.5 77.1C33 77.1 36.5 75.9 39 73.5C41.6 71.1 42.8 67.7 42.8 63.2C42.8 58.7 41.5 55.2 38.8 52.7C36.1 50.3 32.1 49 26.8 49H18.3V37.7H18.4Z" fill="#03579B"/>
<path d="M52 55.4H62.7V66.9H52V86.1H37.7V67H0.4L0 58.2L37.2 0H52.1V55.4H52ZM15.1 55.4H37.6V19.4L36.5 21.3L15.1 55.4Z" transform="translate(26.7 2.39999)" fill="#00B8D5"/>
<path d="M35.4 86.5H21.1V17.3L0 24.5V12.4L33.6 0H35.4V86.5Z" transform="translate(66.9 2)" fill="#03579B"/>
<path d="M59.6 87.3H1.7V77.4L30.4 46.1C34.5 41.5 37.5 37.6 39.2 34.5C41 31.4 41.8 28.3 41.8 25.2C41.8 21.1 40.6 17.8 38.3 15.3C36 12.8 32.9 11.5 29 11.5C24.3 11.5 20.7 12.9 18.2 15.8C15.6 18.6 14.4 22.5 14.4 27.5H0C0 22.3 1.2 17.5 3.6 13.3C6 9.1 9.4 5.8 13.8 3.5C18.2 1.2 23.4 0 29.2 0C37.6 0 44.2 2.1 49 6.3C53.8 10.5 56.3 16.3 56.3 23.7C56.3 28 55.1 32.5 52.7 37.2C50.3 41.9 46.3 47.3 40.8 53.3L19.7 75.8H59.7V87.3H59.6Z" transform="translate(93.3 1.20001)" fill="#00B8D5"/>
<path d="M0 2.6C0 1.8 0.199997 1.1 0.699997 0.699997C1.2 0.199997 1.8 0 2.5 0C3.2 0 3.8 0.199997 4.2 0.699997C4.7 1.2 4.90001 1.8 4.90001 2.6C4.90001 3.4 4.7 4 4.2 4.5C3.7 5 3.2 5.2 2.5 5.2C1.8 5.2 1.2 5 0.699997 4.5C0.199997 4.1 0 3.4 0 2.6Z" transform="translate(168.2 83.5)" fill="#03579B"/>
<path d="M13.7 7.4L0 4.3V0L19.9 5.4V9.1L6.3 13.4L19.9 17.6V21.3L0 26.6V22.3L13.6 19.1L0 14.9V11.5L13.7 7.4Z" transform="translate(162 55.5)" fill="#03579B"/>
<path d="M10.2 18.4C8.3 18.4 6.49999 18 4.89999 17.2C3.29999 16.4 2.09999 15.3 1.29999 14C0.499988 12.6 0 11 0 9.2C0 6.5 0.899991 4.3 2.59999 2.7C4.29999 0.999997 6.6 0.1 9.5 0H10.5C12.5 0 14.2 0.399998 15.7 1.1C17.2 1.9 18.4 2.9 19.3 4.3C20.1 5.7 20.6 7.3 20.6 9.2C20.6 12 19.7 14.2 17.8 15.9C15.9 17.6 13.4 18.4 10.3 18.4H10.2ZM10.5 13.9C12.5 13.9 14.1 13.5 15.3 12.6C16.5 11.8 17 10.6 17 9.1C17 7.6 16.4 6.4 15.2 5.6C14 4.8 12.3 4.3 10 4.3C8 4.3 6.4 4.7 5.2 5.6C4 6.5 3.39999 7.6 3.39999 9.1C3.39999 10.6 3.99999 11.7 5.09999 12.6C6.49999 13.5 8.2 13.9 10.5 13.9Z" transform="translate(161.6 34.9)" fill="#03579B"/>
<path d="M4.5 0.1C4.4 0.7 4.39999 1.3 4.39999 1.9C4.39999 3.9 5.2 5.3 6.7 6H20.3V10.5H0.399994V6.2L2.59999 6.1C0.899991 5 0 3.5 0 1.6C0 1 0.0999878 0.4 0.299988 0L4.5 0.1Z" transform="translate(161.6 20.6)" fill="#03579B"/>
<path d="M19.7 11.1L21.7 13.1H28.2V17.6H0V13.1H16.3L14.6 11.7L8.39999 6.2V0.8L16.7 8.2L28.3 0V5.2L19.7 11.1Z" transform="translate(153.6 0.299988)" fill="#03579B"/>
</svg>
